<svg width="32" height="33" viewBox="0 0 32 33" fill="none" xmlns="http://www.w3.org/2000/svg">
<g clip-path="url(#clip0_114_62)">
<path d="M32 16.375C32 7.5385 24.8365 0.375 16 0.375C7.1635 0.375 0 7.5385 0 16.375C0 24.361 5.851 30.9804 13.5 32.1806V21H9.4375V16.375H13.5V12.85C13.5 8.84 15.8888 6.625 19.5435 6.625C21.294 6.625 23.125 6.9375 23.125 6.9375V10.875H21.1075C19.1199 10.875 18.5 12.1084 18.5 13.3737V16.375H22.9375L22.2281 21H18.5V32.1806C26.149 30.9804 32 24.3611 32 16.375Z" fill="#1877F2"/>
<path d="M22.2281 21L22.9375 16.375H18.5V13.3737C18.5 12.1082 19.1199 10.875 21.1075 10.875H23.125V6.9375C23.125 6.9375 21.294 6.625 19.5434 6.625C15.8888 6.625 13.5 8.84 13.5 12.85V16.375H9.4375V21H13.5V32.1806C14.327 32.3102 15.1629 32.3752 16 32.375C16.8371 32.3752 17.673 32.3102 18.5 32.1806V21H22.2281Z" fill="white"/>
</g>
<defs>
<clipPath id="clip0_114_62">
<rect width="32" height="32" fill="white" transform="translate(0 0.375)"/>
</clipPath>
</defs>
</svg>
