<svg width="33" height="33" viewBox="0 0 33 33" fill="none" xmlns="http://www.w3.org/2000/svg">
<path d="M27.7192 7.553C27.5931 7.40934 27.4375 7.29449 27.2631 7.21622C27.0887 7.13795 26.8995 7.09811 26.7083 7.09939L8.28333 7.21592L8.01352 5.66559C7.95979 5.35459 7.79748 5.07273 7.55547 4.87015C7.31346 4.66758 7.00743 4.55741 6.69183 4.55926L3.69189 4.57824C3.33827 4.58047 3.00003 4.72309 2.75157 4.97472C2.50311 5.22634 2.36478 5.56636 2.36701 5.91998C2.36925 6.27359 2.51187 6.61183 2.76349 6.8603C3.01512 7.10876 3.35514 7.24709 3.70875 7.24485L5.57938 7.23302L8.15347 22.1024L8.21452 22.2673L8.28779 22.4682L8.4493 22.7058L8.57691 22.8544L8.83533 23.0261L8.98521 23.1118C9.14096 23.1747 9.3072 23.2075 9.47516 23.2087L24.1429 23.1159C24.4965 23.1137 24.8347 22.9711 25.0832 22.7195C25.3317 22.4678 25.47 22.1278 25.4677 21.7742C25.4655 21.4206 25.3229 21.0823 25.0713 20.8339C24.8196 20.5854 24.4796 20.4471 24.126 20.4493L10.5889 20.5349L10.3592 19.203L25.4509 19.1076C25.7717 19.1056 26.0811 18.988 26.3222 18.7763C26.5633 18.5647 26.7201 18.2731 26.7636 17.9553L28.0379 8.61368C28.0639 8.42437 28.0489 8.23168 27.9939 8.04868C27.9389 7.86568 27.8452 7.69664 27.7192 7.553ZM25.1879 9.77572L24.8247 12.4447L20.0755 12.4748L20.0586 9.80816L25.1879 9.77572ZM18.7253 9.8166L18.7422 12.4832L14.7423 12.5085L14.7254 9.84189L18.7253 9.8166ZM18.7506 13.8165L18.7675 16.4831L14.7676 16.5084L14.7507 13.8418L18.7506 13.8165ZM13.3921 9.85033L13.409 12.5169L9.40904 12.5422L9.21196 12.5835L8.74418 9.87972L13.3921 9.85033ZM9.43614 13.8754L13.4174 13.8502L13.4343 16.5169L9.89699 16.5392L9.43614 13.8754ZM20.1008 16.4747L20.0839 13.8081L24.6412 13.7793L24.278 16.4483L20.1008 16.4747Z" fill="white"/>
<path d="M11.5102 28.5293C12.6147 28.5223 13.5045 27.6212 13.4975 26.5167C13.4905 25.4121 12.5894 24.5224 11.4849 24.5294C10.3803 24.5364 9.49059 25.4374 9.49757 26.542C9.50456 27.6465 10.4056 28.5363 11.5102 28.5293Z" fill="white"/>
<path d="M23.5099 28.4534C24.6145 28.4464 25.5042 27.5453 25.4972 26.4408C25.4903 25.3362 24.5892 24.4465 23.4846 24.4535C22.3801 24.4605 21.4903 25.3615 21.4973 26.4661C21.5043 27.5706 22.4054 28.4604 23.5099 28.4534Z" fill="white"/>
</svg>
