<svg width="33" height="32" viewBox="0 0 33 32" fill="none" xmlns="http://www.w3.org/2000/svg">
<g clip-path="url(#clip0_33_41)">
<path d="M25.2656 0H7.73438C3.4628 0 0 3.35786 0 7.5V24.5C0 28.6421 3.4628 32 7.73438 32H25.2656C29.5372 32 33 28.6421 33 24.5V7.5C33 3.35786 29.5372 0 25.2656 0Z" fill="url(#paint0_radial_33_41)"/>
<path d="M25.2656 0H7.73438C3.4628 0 0 3.35786 0 7.5V24.5C0 28.6421 3.4628 32 7.73438 32H25.2656C29.5372 32 33 28.6421 33 24.5V7.5C33 3.35786 29.5372 0 25.2656 0Z" fill="url(#paint1_radial_33_41)"/>
<path d="M16.5012 3.5C13.0003 3.5 12.5609 3.51488 11.186 3.5755C9.81363 3.6365 8.87687 3.84712 8.05729 4.15625C7.20934 4.4755 6.49017 4.90262 5.77371 5.59762C5.05661 6.2925 4.61613 6.98987 4.28588 7.81175C3.96619 8.60675 3.74872 9.5155 3.68698 10.8456C3.62549 12.179 3.60938 12.6053 3.60938 16.0001C3.60938 19.395 3.62484 19.8197 3.68723 21.153C3.7504 22.4837 3.96761 23.3921 4.28613 24.1869C4.61562 25.0091 5.05609 25.7065 5.77281 26.4013C6.48914 27.0966 7.20831 27.5247 8.05561 27.844C8.87584 28.1531 9.81273 28.3637 11.1848 28.4247C12.5599 28.4854 12.9989 28.5002 16.4996 28.5002C20.0008 28.5002 20.4389 28.4854 21.8138 28.4247C23.1861 28.3637 24.1239 28.1531 24.9441 27.844C25.7917 27.5247 26.5098 27.0966 27.226 26.4013C27.9431 25.7065 28.3835 25.0091 28.7139 24.1873C29.0307 23.3921 29.2483 22.4835 29.3128 21.1532C29.3745 19.82 29.3906 19.395 29.3906 16.0001C29.3906 12.6053 29.3745 12.1792 29.3128 10.8459C29.2483 9.51512 29.0307 8.60688 28.7139 7.81213C28.3835 6.98988 27.9431 6.2925 27.226 5.59762C26.5091 4.90237 25.7919 4.47525 24.9434 4.15637C24.1216 3.84712 23.1843 3.63638 21.812 3.5755C20.4369 3.51488 19.9992 3.5 16.4972 3.5H16.5012ZM15.3447 5.75262C15.688 5.75212 16.071 5.75262 16.5012 5.75262C19.9431 5.75262 20.3509 5.76463 21.7101 5.8245C22.967 5.88025 23.6491 6.08388 24.1035 6.255C24.7051 6.4815 25.134 6.75238 25.5849 7.19C26.0361 7.6275 26.3153 8.04412 26.5495 8.6275C26.726 9.0675 26.9363 9.729 26.9935 10.9478C27.0552 12.2655 27.0686 12.6612 27.0686 15.9972C27.0686 19.3332 27.0552 19.7291 26.9935 21.0467C26.936 22.2655 26.726 22.927 26.5495 23.3671C26.316 23.9505 26.0361 24.3659 25.5849 24.8031C25.1338 25.2406 24.7054 25.5114 24.1035 25.738C23.6497 25.9099 22.967 26.113 21.7101 26.1688C20.3512 26.2286 19.9431 26.2416 16.5012 26.2416C13.0591 26.2416 12.6511 26.2286 11.2923 26.1688C10.0355 26.1125 9.35331 25.9089 8.89853 25.7377C8.29705 25.5111 7.86728 25.2404 7.41611 24.8029C6.96493 24.3654 6.68572 23.9498 6.4515 23.3661C6.27503 22.926 6.06478 22.2645 6.00755 21.0457C5.9458 19.728 5.93343 19.3323 5.93343 15.9941C5.93343 12.656 5.9458 12.2624 6.00755 10.9446C6.06504 9.72587 6.27503 9.06437 6.4515 8.62375C6.68521 8.04037 6.96493 7.62375 7.41623 7.18625C7.86754 6.74875 8.29705 6.47787 8.89866 6.25087C9.35305 6.079 10.0355 5.87587 11.2923 5.81987C12.4815 5.76775 12.9423 5.75212 15.3447 5.7495V5.75262ZM23.3822 7.82812C22.5282 7.82812 21.8353 8.49938 21.8353 9.32763C21.8353 10.1558 22.5282 10.8276 23.3822 10.8276C24.2362 10.8276 24.9291 10.1558 24.9291 9.32763C24.9291 8.4995 24.2362 7.82762 23.3822 7.82762V7.82812ZM16.5012 9.58075C12.8454 9.58075 9.88131 12.455 9.88131 16.0001C9.88131 19.5453 12.8454 22.4181 16.5012 22.4181C20.1571 22.4181 23.1201 19.5453 23.1201 16.0001C23.1201 12.4551 20.1568 9.58075 16.5009 9.58075H16.5012ZM16.5012 11.8334C18.8742 11.8334 20.7981 13.6988 20.7981 16.0001C20.7981 18.3013 18.8742 20.1669 16.5012 20.1669C14.1281 20.1669 12.2043 18.3013 12.2043 16.0001C12.2043 13.6988 14.128 11.8334 16.5012 11.8334Z" fill="white"/>
</g>
<defs>
<radialGradient id="paint0_radial_33_41" cx="0" cy="0" r="1" gradientUnits="userSpaceOnUse" gradientTransform="translate(8.76562 34.4646) rotate(-90) scale(31.7144 30.4187)">
<stop stop-color="#FFDD55"/>
<stop offset="0.1" stop-color="#FFDD55"/>
<stop offset="0.5" stop-color="#FF543E"/>
<stop offset="1" stop-color="#C837AB"/>
</radialGradient>
<radialGradient id="paint1_radial_33_41" cx="0" cy="0" r="1" gradientUnits="userSpaceOnUse" gradientTransform="translate(-5.52763 2.30512) rotate(78.3368) scale(14.1938 60.1886)">
<stop stop-color="#3771C8"/>
<stop offset="0.128" stop-color="#3771C8"/>
<stop offset="1" stop-color="#6600FF" stop-opacity="0"/>
</radialGradient>
<clipPath id="clip0_33_41">
<rect width="33" height="32" fill="white"/>
</clipPath>
</defs>
</svg>
