<svg width="32" height="32" viewBox="0 0 32 32" fill="none" xmlns="http://www.w3.org/2000/svg">
<path d="M10.6667 4C11.3333 4 14 10 14 10.6667C14 12 12 13.3333 11.3333 14.6667C10.6667 16 12 17.3333 13.3333 18.6667C13.8533 19.1867 16 21.3333 17.3333 20.6667C18.6667 20 20 18 21.3333 18C22 18 28 20.6667 28 21.3333C28 24 26 26 24 26.6667C22 27.3333 20.6667 27.3333 18 26.6667C15.3333 26 13.3333 25.3333 9.99999 22C6.66666 18.6667 5.99999 16.6667 5.33333 14C4.66666 11.3333 4.66666 10 5.33333 8C5.99999 6 7.99999 4 10.6667 4Z" stroke="#32B524" stroke-width="2" stroke-linecap="round" stroke-linejoin="round"/>
<path d="M18.6667 9.38672C19.5467 9.80005 20.3467 10.3601 21.0133 11.0401C21.6667 11.6934 22.2133 12.4801 22.6133 13.3334" stroke="#32B524" stroke-width="2" stroke-linecap="round" stroke-linejoin="round" stroke-dasharray="4 4"/>
<path d="M20 4.33337C21.88 4.82671 23.56 5.80004 24.8933 7.13337C26.2133 8.46671 27.1867 10.1334 27.6667 12" stroke="#32B524" stroke-width="2" stroke-linecap="round" stroke-linejoin="round" stroke-dasharray="6 6"/>
</svg>
