<svg width="32" height="37" viewBox="0 0 32 37" fill="none" xmlns="http://www.w3.org/2000/svg">
<g clip-path="url(#clip0_114_58)">
<path d="M23.715 13.4277C26.0498 15.0958 28.91 16.0773 31.9992 16.0773V10.136C31.4145 10.1363 30.8314 10.0753 30.2594 9.95404V14.6307C27.1705 14.6307 24.3107 13.6493 21.9754 11.9813V24.1058C21.9754 30.1712 17.0559 35.0877 10.9879 35.0877C8.72378 35.0877 6.61928 34.4035 4.87115 33.2302C6.8664 35.2693 9.6489 36.5342 12.7272 36.5342C18.7957 36.5342 23.7153 31.6177 23.7153 25.552V13.4277H23.715ZM25.8613 7.43366C24.668 6.13079 23.8845 4.44704 23.715 2.58554V1.82141H22.0664C22.4814 4.18729 23.897 6.20854 25.8613 7.43366ZM8.70915 28.5759C8.04245 27.7024 7.68209 26.6335 7.68378 25.5347C7.68378 22.7607 9.9339 20.5114 12.71 20.5114C13.2273 20.5111 13.7415 20.5905 14.2347 20.7468V14.6727C13.6584 14.5938 13.0769 14.5602 12.4957 14.5725V19.3003C12.0023 19.144 11.4878 19.0646 10.9703 19.065C8.19428 19.065 5.94428 21.314 5.94428 24.0884C5.94428 26.0502 7.0689 27.7485 8.70915 28.5759Z" fill="#FF004F"/>
<path d="M21.9754 11.9812C24.3107 13.6492 27.1704 14.6305 30.2594 14.6305V9.95391C28.5351 9.58678 27.0088 8.68629 25.8611 7.43366C23.8968 6.20841 22.4814 4.18716 22.0664 1.82141H17.736V25.5518C17.7261 28.3183 15.4799 30.5583 12.7097 30.5583C11.0775 30.5583 9.62725 29.7807 8.70887 28.5758C7.06887 27.7485 5.94412 26.05 5.94412 24.0885C5.94412 21.3144 8.19412 19.0652 10.9701 19.0652C11.502 19.0652 12.0146 19.1479 12.4955 19.3004V14.5727C6.534 14.6958 1.73962 19.5643 1.73962 25.5519C1.73962 28.5409 2.9335 31.2505 4.87125 33.2304C6.61937 34.4035 8.72375 35.0879 10.988 35.0879C17.0561 35.0879 21.9755 30.171 21.9755 24.1058L21.9754 11.9812Z" fill="black"/>
<path d="M30.2594 9.95375V8.6895C28.7045 8.69175 27.1804 8.25655 25.8611 7.43363C27.0289 8.71139 28.5665 9.59254 30.2594 9.954M22.0662 1.82125C22.0267 1.5952 21.9964 1.36764 21.9753 1.13912V0.375H15.996V24.1056C15.9865 26.8719 13.7403 29.1119 10.97 29.1119C10.1847 29.113 9.41005 28.9295 8.70875 28.576C9.62712 29.7806 11.0774 30.5581 12.7096 30.5581C15.4796 30.5581 17.7261 28.3184 17.7359 25.5519V1.82138L22.0662 1.82125ZM12.4958 14.5725V13.2264C11.9961 13.1582 11.4924 13.124 10.9881 13.1241C4.91937 13.1241 0 18.0409 0 24.1056C0 27.908 1.93338 31.259 4.87138 33.2301C2.93363 31.2504 1.73975 28.5406 1.73975 25.5518C1.73975 19.5643 6.534 14.6956 12.4958 14.5725Z" fill="#00F2EA"/>
</g>
<defs>
<clipPath id="clip0_114_58">
<rect width="32" height="36.25" fill="white" transform="translate(0 0.375)"/>
</clipPath>
</defs>
</svg>
