<svg width="32" height="33" viewBox="0 0 32 33" fill="none" xmlns="http://www.w3.org/2000/svg">
<g clip-path="url(#clip0_33_32)">
<path d="M0.682888 16.682C0.682138 19.3916 1.39014 22.0374 2.73639 24.3694L0.554138 32.3371L8.70814 30.1991C10.9634 31.4269 13.4903 32.0702 16.0581 32.0704H16.0649C24.5418 32.0704 31.4421 25.1725 31.4458 16.6941C31.4474 12.5858 29.8489 8.72252 26.9446 5.81602C24.0409 2.90977 20.179 1.30839 16.0643 1.30652C7.58639 1.30652 0.686513 8.20402 0.683013 16.682" fill="url(#paint0_linear_33_32)"/>
<path d="M0.13375 16.677C0.132875 19.4841 0.86625 22.2245 2.2605 24.64L0 32.8934L8.44637 30.6787C10.7736 31.9476 13.3939 32.6166 16.0601 32.6176H16.067C24.848 32.6176 31.9963 25.4716 32 16.6897C32.0015 12.4338 30.3455 8.43162 27.3375 5.421C24.3291 2.41075 20.3291 0.75175 16.067 0.75C7.2845 0.75 0.13725 7.895 0.13375 16.677ZM5.16388 24.224L4.8485 23.7234C3.52275 21.6154 2.823 19.1794 2.824 16.678C2.82675 9.37863 8.76725 3.44 16.072 3.44C19.6095 3.4415 22.934 4.8205 25.4345 7.3225C27.9349 9.82475 29.3108 13.151 29.3099 16.6888C29.3066 23.9881 23.366 29.9275 16.067 29.9275H16.0618C13.6851 29.9263 11.3542 29.288 9.3215 28.0819L8.83775 27.795L3.8255 29.1091L5.16388 24.224Z" fill="url(#paint1_linear_33_32)"/>
<path d="M12.0848 10.0185C11.7865 9.35561 11.4726 9.34224 11.189 9.33061C10.9568 9.32061 10.6913 9.32136 10.426 9.32136C10.1605 9.32136 9.72913 9.42124 9.36451 9.81936C8.99951 10.2179 7.97101 11.1809 7.97101 13.1395C7.97101 15.0981 9.39763 16.9911 9.59651 17.257C9.79563 17.5224 12.3506 21.6704 16.3971 23.2661C19.7601 24.5922 20.4445 24.3285 21.1744 24.262C21.9044 24.1957 23.5299 23.2992 23.8615 22.3696C24.1934 21.4401 24.1934 20.6434 24.0939 20.4769C23.9944 20.311 23.7289 20.2114 23.3308 20.0124C22.9326 19.8134 20.9753 18.8501 20.6104 18.7172C20.2454 18.5845 19.98 18.5182 19.7145 18.9169C19.449 19.3149 18.6866 20.2114 18.4543 20.4769C18.2221 20.743 17.9898 20.7761 17.5918 20.577C17.1934 20.3772 15.9113 19.9574 14.3901 18.6012C13.2066 17.546 12.4076 16.2429 12.1754 15.8442C11.9431 15.4462 12.1505 15.2305 12.3501 15.0321C12.529 14.8537 12.7484 14.5672 12.9476 14.3349C13.1461 14.1024 13.2124 13.9365 13.3451 13.671C13.478 13.4052 13.4115 13.1727 13.3121 12.9736C13.2124 12.7745 12.4388 10.8056 12.0848 10.0185Z" fill="white"/>
</g>
<defs>
<linearGradient id="paint0_linear_33_32" x1="1545.14" y1="3104.37" x2="1545.14" y2="1.30652" gradientUnits="userSpaceOnUse">
<stop stop-color="#1FAF38"/>
<stop offset="1" stop-color="#60D669"/>
</linearGradient>
<linearGradient id="paint1_linear_33_32" x1="1600" y1="3215.09" x2="1600" y2="0.75" gradientUnits="userSpaceOnUse">
<stop stop-color="#F9F9F9"/>
<stop offset="1" stop-color="white"/>
</linearGradient>
<clipPath id="clip0_33_32">
<rect width="32" height="32.25" fill="white" transform="translate(0 0.75)"/>
</clipPath>
</defs>
</svg>
